<svg width="207" height="207" viewBox="0 0 207 207" fill="none" xmlns="http://www.w3.org/2000/svg">
<path fill-rule="evenodd" clip-rule="evenodd" d="M125.946 2.44214C124.455 2.11257 122.952 1.81511 121.437 1.55053L1.548 121.44C1.81266 122.954 2.11028 124.457 2.44009 125.948L125.946 2.44214ZM2.70195 127.1C3.09647 128.791 3.53249 130.467 4.0089 132.125L132.124 4.0101C130.466 3.53401 128.79 3.09822 127.099 2.70385L2.70195 127.1ZM53.3561 12.938C56.7302 11.0657 60.2194 9.37671 63.8101 7.88424L7.8823 63.812C9.3741 60.2213 11.0621 56.7334 12.9327 53.3614L53.3561 12.938ZM3.85961 75.4046C4.74313 72.2639 5.77097 69.1842 6.93546 66.1731L66.1719 6.93667C69.1847 5.77097 72.2653 4.74234 75.4059 3.85835L3.85961 75.4046ZM100.327 0.0475037C98.4042 0.105126 96.4939 0.215327 94.598 0.37673L0.378993 94.5957C0.217305 96.4917 0.106629 98.4024 0.0483562 100.327L100.327 0.0475037ZM0.0144573 101.775C0.0108051 101.995 0.00784267 102.216 0.005572 102.438C-0.0108591 104.038 0.00910791 105.63 0.0647021 107.213L107.211 0.0663673C106.331 0.0352189 105.448 0.0150315 104.563 0.00593821C103.631 -0.0036329 102.701 -0.000853955 101.775 0.0141227L0.0144573 101.775ZM147.469 9.77626C146.237 9.19744 144.992 8.64217 143.734 8.11104L8.11139 143.733C8.6426 144.991 9.19798 146.236 9.77696 147.468L147.469 9.77626ZM10.2332 148.426C10.8256 149.653 11.4414 150.867 12.0803 152.067L152.068 12.0793C150.868 11.4406 149.654 10.8248 148.427 10.2325L10.2332 148.426ZM108.568 0.123201C110.258 0.204886 111.936 0.32699 113.603 0.488559L0.485883 113.606C0.324374 111.939 0.202499 110.26 0.121205 108.57L108.568 0.123201ZM1.3439 120.23C1.0568 118.464 0.814472 116.683 0.618102 114.888L114.885 0.620837C116.68 0.817312 118.461 1.05961 120.227 1.34651L1.3439 120.23ZM84.3024 1.77631C81.9549 2.21673 79.635 2.73651 77.3457 3.33279L3.33445 77.344C2.73872 79.6325 2.21925 81.952 1.77893 84.2998L84.3024 1.77631ZM1.47105 86.0219C1.07777 88.3346 0.761092 90.6738 0.52375 93.0368L93.0393 0.521266C90.677 0.75828 88.3379 1.07486 86.0246 1.46832L1.47105 86.0219ZM137.302 5.64617C135.953 5.18036 134.591 4.74164 133.218 4.33066L4.32962 133.219C4.74075 134.592 5.17966 135.954 5.64571 137.303L137.302 5.64617ZM6.01354 138.349C6.5419 139.827 7.10294 141.289 7.69578 142.735L142.735 7.69554C141.289 7.10294 139.827 6.54209 138.349 6.01385L6.01354 138.349ZM14.8828 49.9971C23.5707 35.6381 35.6467 23.5696 49.9908 14.8891L14.8828 49.9971ZM33.8652 180.073C32.9232 179.216 31.9972 178.342 31.0875 177.451L177.45 31.088C178.341 31.9978 179.216 32.924 180.073 33.866L33.8652 180.073ZM34.609 180.744C35.5766 181.608 36.5606 182.453 37.5604 183.281L183.279 37.5616C182.452 36.5618 181.607 35.5777 180.743 34.6099L34.609 180.744ZM27.4028 173.654C28.3727 174.705 29.3642 175.737 30.3765 176.748L176.747 30.3769C175.737 29.3645 174.705 28.3729 173.654 27.4028L27.4028 173.654ZM26.7277 172.915C25.8719 171.969 25.0334 171.007 24.2126 170.029L170.03 24.2122C171.007 25.0331 171.969 25.8718 172.915 26.7276L26.7277 172.915ZM38.3377 183.918C39.3332 184.725 40.3439 185.515 41.3696 186.286L186.284 41.3711C185.514 40.3455 184.724 39.3346 183.916 38.339L38.3377 183.918ZM45.7397 189.398C44.535 188.586 43.3483 187.75 42.1804 186.889L186.888 42.182C187.748 43.3501 188.584 44.5368 189.396 45.7415L45.7397 189.398ZM49.8957 192.056C48.7791 191.379 47.6765 190.681 46.5883 189.963L189.962 46.5901C190.679 47.6784 191.377 48.7811 192.054 49.8975L49.8957 192.056ZM50.7797 192.587C51.9514 193.281 53.138 193.954 54.3391 194.603L194.602 54.3408C193.952 53.1399 193.28 51.9533 192.585 50.7815L50.7797 192.587ZM18.0061 161.852C18.7352 162.918 19.4837 163.97 20.2511 165.007L165.008 20.2503C163.971 19.4828 162.919 18.7343 161.853 18.0051L18.0061 161.852ZM165.817 20.8553L20.8561 165.816C21.737 166.983 22.642 168.13 23.5705 169.257L169.258 23.57C168.131 22.6415 166.983 21.7364 165.817 20.8553ZM17.4354 161.008C16.6213 159.792 15.8323 158.558 15.0692 157.307L157.308 15.0681C158.559 15.8313 159.793 16.6203 161.009 17.4343L17.4354 161.008ZM12.5755 152.986C13.208 154.146 13.8621 155.292 14.5373 156.424L156.425 14.5362C155.293 13.8611 154.147 13.207 152.987 12.5745L12.5755 152.986ZM100.105 206.945C100.881 206.97 101.658 206.987 102.437 206.995C103.451 207.005 104.461 207.001 105.468 206.982L206.981 105.469C206.987 105.168 206.991 104.866 206.994 104.563C207.01 103.07 206.993 101.583 206.946 100.105L100.105 206.945ZM113.398 206.534C111.257 206.737 109.096 206.875 106.919 206.945L206.944 106.921C206.873 109.099 206.735 111.26 206.531 113.401L113.398 206.534ZM206.369 114.977L114.974 206.373C117.09 206.139 119.188 205.842 121.264 205.483L205.479 121.268C205.838 119.192 206.136 117.094 206.369 114.977ZM130.098 203.551C127.761 204.171 125.391 204.711 122.993 205.169L205.165 122.996C204.708 125.395 204.168 127.764 203.549 130.101L130.098 203.551ZM140.134 200.33C137.49 201.331 134.793 202.227 132.051 203.013L203.011 132.053C202.226 134.795 201.33 137.491 200.33 140.134L140.134 200.33ZM142.463 199.415C146.503 197.772 150.418 195.881 154.186 193.76L193.764 154.181C195.883 150.415 197.774 146.502 199.416 142.462L142.463 199.415ZM157.623 191.737C171.494 183.211 183.21 171.502 191.743 157.617L157.623 191.737ZM91.7294 206.337C90.1344 206.156 88.5506 205.94 86.9787 205.687L205.689 86.9768C205.942 88.5489 206.158 90.1327 206.339 91.7274L91.7294 206.337ZM93.007 206.474L206.476 93.005C206.667 94.9032 206.806 96.8163 206.893 98.7429L98.7441 206.892C96.8173 206.805 94.9045 206.665 93.007 206.474ZM80.7037 204.48C82.3762 204.856 84.0641 205.192 85.7664 205.486L205.487 85.7645C205.193 84.0627 204.858 82.375 204.482 80.7025L80.7037 204.48ZM79.5546 204.215C78.1136 203.874 76.6844 203.503 75.2676 203.102L203.103 75.2671C203.504 76.6839 203.875 78.1129 204.216 79.5535L79.5546 204.215ZM65.0356 199.617C66.3301 200.136 67.6375 200.629 68.9574 201.096L201.095 68.9578C200.628 67.6383 200.135 66.331 199.616 65.0365L65.0356 199.617ZM201.46 70.0069L70.0067 201.461C71.3817 201.931 72.7698 202.372 74.1703 202.785L202.786 74.17C202.373 72.7698 201.931 71.3819 201.46 70.0069ZM64.0302 199.209C62.6086 198.622 61.203 198.004 59.8142 197.357L197.355 59.8156C198.003 61.2044 198.621 62.6099 199.208 64.0312L64.0302 199.209ZM55.2609 195.096C56.445 195.721 57.6429 196.323 58.8538 196.903L196.902 58.8553C196.322 57.6446 195.719 56.4468 195.094 55.2626L55.2609 195.096Z" fill="url(#paint0_linear_20_350)" fill-opacity="0.35"/>
<defs>
<linearGradient id="paint0_linear_20_350" x1="210.694" y1="199.068" x2="47.8959" y2="83.2912" gradientUnits="userSpaceOnUse">
<stop stop-color="#F34604"/>
<stop offset="0.510417" stop-color="#0068FF"/>
<stop offset="1" stop-color="#A0152F"/>
</linearGradient>
</defs>
</svg>
